<svg xmlns="http://www.w3.org/2000/svg" width="68.562" height="41.693" viewBox="0 0 68.562 41.693"><defs><style>.a{fill:#fff;}</style></defs><path class="a" d="M606.965,472.052,576,454.176a2.966,2.966,0,0,0-4.449,2.569V492.5A2.966,2.966,0,0,0,576,495.065l30.962-17.875A2.967,2.967,0,0,0,606.965,472.052Z" transform="translate(-539.885 -453.774)"/><path class="a" d="M640.57,472.052l-30.962-17.876a2.966,2.966,0,0,0-4.449,2.569V492.5a2.966,2.966,0,0,0,4.449,2.569L640.57,477.19A2.966,2.966,0,0,0,640.57,472.052Z" transform="translate(-605.16 -453.774)"/></svg>