<svg xmlns="http://www.w3.org/2000/svg" width="50.1" height="74.803" viewBox="0 0 50.1 74.803"><defs><style>.a{fill:#fff;}</style></defs><path class="a" d="M366.929,262.7H354.693a3.348,3.348,0,0,1-3.348-3.348V191.245a3.347,3.347,0,0,1,3.348-3.348h12.237a3.347,3.347,0,0,1,3.348,3.348v68.107A3.348,3.348,0,0,1,366.929,262.7Zm34.515-3.348V191.245A3.347,3.347,0,0,0,398.1,187.9H385.86a3.347,3.347,0,0,0-3.348,3.348v68.107a3.348,3.348,0,0,0,3.348,3.348H398.1A3.348,3.348,0,0,0,401.445,259.352Z" transform="translate(-351.345 -187.897)"/></svg>