<svg xmlns="http://www.w3.org/2000/svg" width="68.562" height="41.693" viewBox="0 0 68.562 41.693"><defs><style>.a{fill:#fff;}</style></defs><path class="a" d="M573.036,472.053,604,454.176a2.966,2.966,0,0,1,4.449,2.569V492.5A2.966,2.966,0,0,1,604,495.065L573.036,477.19A2.967,2.967,0,0,1,573.036,472.053Z" transform="translate(-571.553 -453.774)"/><path class="a" d="M606.643,472.053,637.6,454.176a2.966,2.966,0,0,1,4.449,2.569V492.5a2.966,2.966,0,0,1-4.449,2.569L606.643,477.19A2.966,2.966,0,0,1,606.643,472.053Z" transform="translate(-573.491 -453.774)"/></svg>