<svg xmlns="http://www.w3.org/2000/svg" width="75.601" height="78.608" viewBox="0 0 75.601 78.608"><defs><style>.a{fill:#fff;}</style></defs><path class="a" d="M413.184,191.483l-.01.038a2.6,2.6,0,0,1-.564.848L400.583,204.4a2.576,2.576,0,0,1-3.792-.158,2.707,2.707,0,0,1,.277-3.619l7.5-7.5H357.508A14.582,14.582,0,0,0,342.924,207.7v9.73a2.579,2.579,0,1,1-5.157,0V207.7a19.74,19.74,0,0,1,19.741-19.739h47.056l-7.628-7.63a2.578,2.578,0,0,1,3.646-3.646l12.027,12.027a2.582,2.582,0,0,1,.562.846l.014.04a2.593,2.593,0,0,1,.182.94h0v0A2.559,2.559,0,0,1,413.184,191.483Zm-75.417,48.449h0a2.547,2.547,0,0,0,.184.94l.012.04a2.547,2.547,0,0,0,.562.846l12.027,12.027a2.578,2.578,0,1,0,3.646-3.646l-7.628-7.628h47.056a19.741,19.741,0,0,0,19.741-19.741v-9.73a2.579,2.579,0,1,0-5.157,0v9.73a14.584,14.584,0,0,1-14.583,14.583H346.571l7.5-7.5a2.709,2.709,0,0,0,.279-3.619,2.58,2.58,0,0,0-3.794-.16l-12.027,12.029a2.6,2.6,0,0,0-.564.846l-.01.038A2.563,2.563,0,0,0,337.767,239.932Z" transform="translate(-337.767 -175.932)"/></svg>