<svg xmlns="http://www.w3.org/2000/svg" width="75.601" height="78.608" viewBox="0 0 75.601 78.608"><defs><style>.a,.b{fill:#fff;}.b{font-size:29px;font-family:SFProDisplay-Medium, SF Pro Display;font-weight:500;}</style></defs><path class="a" d="M503.491,190.543v0h0a2.558,2.558,0,0,0-.182-.94l-.012-.04a2.613,2.613,0,0,0-.564-.846l-12.027-12.027a2.578,2.578,0,0,0-3.646,3.646l7.628,7.63H447.631A19.74,19.74,0,0,0,427.89,207.7v9.73a2.579,2.579,0,1,0,5.157,0V207.7a14.582,14.582,0,0,1,14.583-14.582h47.056l-7.5,7.5a2.705,2.705,0,0,0-.278,3.619,2.576,2.576,0,0,0,3.792.158l12.027-12.027a2.574,2.574,0,0,0,.564-.848l.012-.038A2.558,2.558,0,0,0,503.491,190.543Z" transform="translate(-427.89 -175.932)"/><path class="a" d="M427.89,225.488h0a2.579,2.579,0,0,0,.184.94l.012.04a2.551,2.551,0,0,0,.564.846l12.027,12.027a2.578,2.578,0,0,0,3.646-3.646l-7.63-7.628H483.75a19.741,19.741,0,0,0,19.741-19.741V198.6a2.579,2.579,0,0,0-5.157,0v9.73A14.584,14.584,0,0,1,483.75,222.91H436.694l7.5-7.5a2.705,2.705,0,0,0,.278-3.619,2.578,2.578,0,0,0-3.792-.16L428.65,223.662a2.569,2.569,0,0,0-.564.846l-.012.038A2.561,2.561,0,0,0,427.89,225.488Z" transform="translate(-427.89 -161.489)"/><text class="b" transform="translate(31.307 49.105)"><tspan x="0" y="0">1</tspan></text></svg>