<svg xmlns="http://www.w3.org/2000/svg" width="79.998" height="55.828" viewBox="0 0 79.998 55.828"><defs><style>.a{fill:#fff;}</style></defs><path class="a" d="M969.374,552.3a4.469,4.469,0,0,0,3.472,1.642h19.1l-4.532-4.549a2.549,2.549,0,0,1-.019-3.606l.019-.019a2.582,2.582,0,0,1,3.625,0l8.551,8.551a3.016,3.016,0,0,1,.874,1.911,1.406,1.406,0,0,1,.034.274,1.583,1.583,0,0,1-.034.291,3.06,3.06,0,0,1-.872,1.9l-8.551,8.551a2.564,2.564,0,1,1-3.626-3.626l4.532-4.549h-19.1a9.544,9.544,0,0,1-7.456-3.54l-9.235-11.355L946.9,555.53a9.514,9.514,0,0,1-7.439,3.54h-16.4a2.565,2.565,0,0,1,0-5.13h16.4a4.472,4.472,0,0,0,3.472-1.642l9.919-12.193-9.919-12.176a4.472,4.472,0,0,0-3.472-1.642h-16.4a2.565,2.565,0,0,1,0-5.13h16.4a9.516,9.516,0,0,1,7.439,3.54Zm0-24.432a4.469,4.469,0,0,1,3.472-1.642h19.1l-4.532,4.549a2.549,2.549,0,0,0-.019,3.606l.019.019a2.582,2.582,0,0,0,3.625,0l8.551-8.551a3.018,3.018,0,0,0,.874-1.911,1.406,1.406,0,0,0,.034-.274,1.572,1.572,0,0,0-.034-.291,3.057,3.057,0,0,0-.872-1.9l-8.551-8.551a2.564,2.564,0,1,0-3.626,3.626l4.532,4.549h-19.1a9.544,9.544,0,0,0-7.456,3.54l-6.7,8.7a.854.854,0,0,0,.018,1.064l2.217,2.686a.853.853,0,0,0,1.333-.021Zm-14.624,6.466" transform="translate(-920.5 -512.169)"/></svg>