<svg xmlns="http://www.w3.org/2000/svg" width="24.482" height="8.977" viewBox="0 0 24.482 8.977"><defs><style>.a{fill:#fff;}</style></defs><path class="a" d="M85.059,121.268h-.071a14.111,14.111,0,0,1-5.885-1.253,13.875,13.875,0,0,1-6.67-6.689.75.75,0,0,1,1.388-.569,12.164,12.164,0,0,0,2.5,3.521,11.961,11.961,0,0,0,8.67,3.491,10.58,10.58,0,0,0,10.4-6.948.75.75,0,0,1,1.434.44,11.894,11.894,0,0,1-2.41,4.034,11.625,11.625,0,0,1-3.642,2.748A13.09,13.09,0,0,1,85.059,121.268Z" transform="translate(-72.377 -112.291)"/></svg>