<svg xmlns="http://www.w3.org/2000/svg" width="24.482" height="8.977" viewBox="0 0 24.482 8.977"><defs><style>.a{fill:#fff;}</style></defs><path class="a" d="M96.108,121.268a.75.75,0,0,1-.717-.531,10.58,10.58,0,0,0-10.4-6.946A12.229,12.229,0,0,0,73.821,120.8a.75.75,0,0,1-1.388-.568,13.875,13.875,0,0,1,6.67-6.689,14.111,14.111,0,0,1,5.885-1.253,13.122,13.122,0,0,1,5.786,1.226,11.625,11.625,0,0,1,3.642,2.748,11.894,11.894,0,0,1,2.41,4.034.751.751,0,0,1-.717.97Z" transform="translate(-72.377 -112.291)"/></svg>