<svg xmlns="http://www.w3.org/2000/svg" width="24.706" height="6.875" viewBox="0 0 24.706 6.875"><defs><style>.a{fill:#fff;}</style></defs><path class="a" d="M85.072,119.167h-.083a15.853,15.853,0,0,1-9.29-2.841,11.681,11.681,0,0,1-2.917-2.882.75.75,0,0,1,1.265-.807,10.481,10.481,0,0,0,2.583,2.51,14.292,14.292,0,0,0,8.365,2.519c7.679.034,10.96-4.977,10.992-5.028a.75.75,0,1,1,1.265.806,11.807,11.807,0,0,1-2.942,2.908A15.65,15.65,0,0,1,85.072,119.167Z" transform="translate(-72.664 -112.291)"/></svg>