<svg xmlns="http://www.w3.org/2000/svg" width="24.706" height="6.875" viewBox="0 0 24.706 6.875"><defs><style>.a{fill:#fff;}</style></defs><path class="a" d="M96.62,119.167a.749.749,0,0,1-.633-.347,10.6,10.6,0,0,0-2.607-2.535,14.1,14.1,0,0,0-8.385-2.493c-7.684.034-10.916,4.978-10.948,5.028a.75.75,0,0,1-1.266-.8,11.681,11.681,0,0,1,2.917-2.882,15.853,15.853,0,0,1,9.29-2.841,15.664,15.664,0,0,1,9.322,2.814,11.807,11.807,0,0,1,2.942,2.908.75.75,0,0,1-.632,1.153Z" transform="translate(-72.664 -112.291)"/></svg>