<svg xmlns="http://www.w3.org/2000/svg" width="79.638" height="79.638" viewBox="0 0 79.638 79.638"><defs><style>.a{fill:#fff;}</style></defs><path class="a" d="M737.5,477.524a9.171,9.171,0,0,1,6.788-8.856,1.4,1.4,0,0,0,1.013-1.707,40.944,40.944,0,0,0-4.18-10.084,1.4,1.4,0,0,0-1.925-.5,9.17,9.17,0,0,1-12.523-12.522,1.4,1.4,0,0,0-.5-1.926,40.9,40.9,0,0,0-10.086-4.183,1.4,1.4,0,0,0-1.706,1.013,9.171,9.171,0,0,1-17.712,0,1.4,1.4,0,0,0-1.706-1.013,40.9,40.9,0,0,0-10.086,4.183,1.4,1.4,0,0,0-.5,1.926,9.168,9.168,0,0,1-12.52,12.52,1.4,1.4,0,0,0-1.926.5,40.91,40.91,0,0,0-4.183,10.086,1.4,1.4,0,0,0,1.013,1.706,9.171,9.171,0,0,1,0,17.712,1.4,1.4,0,0,0-1.013,1.706,40.909,40.909,0,0,0,4.183,10.086,1.4,1.4,0,0,0,1.926.5,9.17,9.17,0,0,1,12.522,12.523,1.4,1.4,0,0,0,.5,1.925,40.943,40.943,0,0,0,10.084,4.18,1.4,1.4,0,0,0,1.707-1.013,9.171,9.171,0,0,1,17.712,0,1.4,1.4,0,0,0,1.707,1.013,40.94,40.94,0,0,0,10.084-4.18,1.4,1.4,0,0,0,.5-1.925,9.173,9.173,0,0,1,12.525-12.525,1.4,1.4,0,0,0,1.925-.5,40.942,40.942,0,0,0,4.18-10.084,1.4,1.4,0,0,0-1.013-1.707A9.17,9.17,0,0,1,737.5,477.524Zm-30.889,16.6a16.631,16.631,0,1,1,15.513-15.513A16.633,16.633,0,0,1,706.606,494.12Z" transform="translate(-665.705 -437.705)"/></svg>