<svg xmlns="http://www.w3.org/2000/svg" width="78.317" height="68.269" viewBox="0 0 78.317 68.269"><defs><style>.a{fill:#fff;}</style></defs><path class="a" d="M650.125,450.172a22.008,22.008,0,0,1,15.607,6.465l1.48,1.479,1.48-1.479a22.072,22.072,0,1,1,31.214,31.214l-2.894,2.894L670.8,516.953a5.079,5.079,0,0,1-7.183,0l-29.1-29.1a22.066,22.066,0,0,1,15.607-37.679Zm17.086,12.586a2.432,2.432,0,0,1-1.735-.721l-2.573-2.572a18.072,18.072,0,1,0-25.557,25.557l29.1,29.1a1.079,1.079,0,0,0,1.526,0l29.1-29.1a18.072,18.072,0,1,0-25.557-25.557l-2.576,2.575A2.434,2.434,0,0,1,667.212,462.758Z" transform="translate(-628.053 -450.172)"/></svg>